{
	"patcher" : 	{
		"fileversion" : 1,
		"appversion" : 		{
			"major" : 8,
			"minor" : 0,
			"revision" : 5,
			"architecture" : "x64",
			"modernui" : 1
		}
,
		"classnamespace" : "box",
		"rect" : [ 34.0, 79.0, 836.0, 677.0 ],
		"bglocked" : 0,
		"openinpresentation" : 0,
		"default_fontsize" : 12.0,
		"default_fontface" : 0,
		"default_fontname" : "Arial",
		"gridonopen" : 1,
		"gridsize" : [ 15.0, 15.0 ],
		"gridsnaponopen" : 1,
		"objectsnaponopen" : 1,
		"statusbarvisible" : 2,
		"toolbarvisible" : 1,
		"lefttoolbarpinned" : 0,
		"toptoolbarpinned" : 0,
		"righttoolbarpinned" : 0,
		"bottomtoolbarpinned" : 0,
		"toolbars_unpinned_last_save" : 0,
		"tallnewobj" : 0,
		"boxanimatetime" : 200,
		"enablehscroll" : 1,
		"enablevscroll" : 1,
		"devicewidth" : 0.0,
		"description" : "",
		"digest" : "",
		"tags" : "",
		"style" : "",
		"subpatcher_template" : "",
		"boxes" : [ 			{
				"box" : 				{
					"hidden" : 1,
					"id" : "obj-38",
					"maxclass" : "newobj",
					"numinlets" : 2,
					"numoutlets" : 1,
					"outlettype" : [ "bang" ],
					"patching_rect" : [ 857.0, 336.90911865234375, 67.0, 22.0 ],
					"text" : "delay 1000"
				}

			}
, 			{
				"box" : 				{
					"hidden" : 1,
					"id" : "obj-39",
					"maxclass" : "message",
					"numinlets" : 2,
					"numoutlets" : 1,
					"outlettype" : [ "" ],
					"patching_rect" : [ 857.0, 362.90911865234375, 29.5, 22.0 ],
					"text" : "1"
				}

			}
, 			{
				"box" : 				{
					"id" : "obj-44",
					"maxclass" : "comment",
					"numinlets" : 1,
					"numoutlets" : 0,
					"patching_rect" : [ 535.3863525390625, 409.717620849609375, 284.0, 20.0 ],
					"text" : "Use one of these built-in videos to preview the filter"
				}

			}
, 			{
				"box" : 				{
					"id" : "obj-97",
					"maxclass" : "newobj",
					"numinlets" : 1,
					"numoutlets" : 0,
					"patching_rect" : [ 679.3863525390625, 614.92974853515625, 130.0, 22.0 ],
					"text" : "s msgsToISFInlet_filter"
				}

			}
, 			{
				"box" : 				{
					"id" : "obj-27",
					"maxclass" : "message",
					"numinlets" : 2,
					"numoutlets" : 1,
					"outlettype" : [ "" ],
					"patching_rect" : [ 535.3863525390625, 614.92974853515625, 139.0, 22.0 ],
					"text" : "param inputImage $1 $2"
				}

			}
, 			{
				"box" : 				{
					"id" : "obj-29",
					"linecount" : 3,
					"maxclass" : "newobj",
					"numinlets" : 1,
					"numoutlets" : 2,
					"outlettype" : [ "jit_matrix", "" ],
					"patching_rect" : [ 612.977294921875, 560.92974853515625, 191.0, 49.0 ],
					"text" : "jit.gl.videoplane isffilterctx @blend_enable 1 @color 1 1 1 1 @transform_reset 2 @layer 2"
				}

			}
, 			{
				"box" : 				{
					"id" : "obj-32",
					"maxclass" : "newobj",
					"numinlets" : 1,
					"numoutlets" : 2,
					"outlettype" : [ "jit_gl_texture", "" ],
					"patching_rect" : [ 535.3863525390625, 560.92974853515625, 70.0, 22.0 ],
					"text" : "jit.gl.texture"
				}

			}
, 			{
				"box" : 				{
					"clipheight" : 38.653920491536461,
					"data" : 					{
						"clips" : [ 							{
								"absolutepath" : "chickens.mp4",
								"filename" : "chickens.mp4",
								"filekind" : "moviefile",
								"loop" : 1,
								"content_state" : 								{
									"outputmode" : [ 1 ],
									"out_name" : [ "u139003754" ],
									"dim" : [ 1, 1 ],
									"loopstart" : [ 0 ],
									"autostart" : [ 1 ],
									"texture_name" : [ "u737003752" ],
									"interp" : [ 0 ],
									"drawto" : [ "" ],
									"usedstrect" : [ 0 ],
									"position" : [ 0.0 ],
									"loopend" : [ 0 ],
									"loopreport" : [ 0 ],
									"srcrect" : [ 0, 0, 1, 1 ],
									"rate" : [ 1.0 ],
									"vol" : [ 1.0 ],
									"looppoints_secs" : [ 0.0, 0.0 ],
									"output_texture" : [ 0 ],
									"automatic" : [ 0 ],
									"engine" : [ "avf" ],
									"time_secs" : [ 0.0 ],
									"moviefile" : [ "" ],
									"looppoints_ms" : [ 0, 0 ],
									"dstrect" : [ 0, 0, 1, 1 ],
									"time" : [ 0 ],
									"time_ms" : [ 0 ],
									"colormode" : [ "argb" ],
									"framereport" : [ 0 ],
									"adapt" : [ 1 ],
									"usesrcrect" : [ 0 ],
									"unique" : [ 0 ],
									"looppoints" : [ 0, 0 ]
								}

							}
, 							{
								"absolutepath" : "dust.mp4",
								"filename" : "dust.mp4",
								"filekind" : "moviefile",
								"loop" : 1,
								"content_state" : 								{
									"outputmode" : [ 1 ],
									"out_name" : [ "u139003754" ],
									"dim" : [ 1, 1 ],
									"loopstart" : [ 0 ],
									"autostart" : [ 1 ],
									"texture_name" : [ "u737003752" ],
									"interp" : [ 0 ],
									"drawto" : [ "" ],
									"usedstrect" : [ 0 ],
									"position" : [ 0.0 ],
									"loopend" : [ 0 ],
									"loopreport" : [ 0 ],
									"srcrect" : [ 0, 0, 1, 1 ],
									"rate" : [ 1.0 ],
									"vol" : [ 1.0 ],
									"looppoints_secs" : [ 0.0, 0.0 ],
									"output_texture" : [ 0 ],
									"automatic" : [ 0 ],
									"engine" : [ "avf" ],
									"time_secs" : [ 0.0 ],
									"moviefile" : [ "" ],
									"looppoints_ms" : [ 0, 0 ],
									"dstrect" : [ 0, 0, 1, 1 ],
									"time" : [ 0 ],
									"time_ms" : [ 0 ],
									"colormode" : [ "argb" ],
									"framereport" : [ 0 ],
									"adapt" : [ 1 ],
									"usesrcrect" : [ 0 ],
									"unique" : [ 0 ],
									"looppoints" : [ 0, 0 ]
								}

							}
, 							{
								"absolutepath" : "sunflower.mp4",
								"filename" : "sunflower.mp4",
								"filekind" : "moviefile",
								"loop" : 1,
								"content_state" : 								{
									"outputmode" : [ 1 ],
									"out_name" : [ "u139003754" ],
									"dim" : [ 1, 1 ],
									"loopstart" : [ 0 ],
									"autostart" : [ 1 ],
									"texture_name" : [ "u737003752" ],
									"interp" : [ 0 ],
									"drawto" : [ "" ],
									"usedstrect" : [ 0 ],
									"position" : [ 0.0 ],
									"loopend" : [ 0 ],
									"loopreport" : [ 0 ],
									"srcrect" : [ 0, 0, 1, 1 ],
									"rate" : [ 1.0 ],
									"vol" : [ 1.0 ],
									"looppoints_secs" : [ 0.0, 0.0 ],
									"output_texture" : [ 0 ],
									"automatic" : [ 0 ],
									"engine" : [ "avf" ],
									"time_secs" : [ 0.0 ],
									"moviefile" : [ "" ],
									"looppoints_ms" : [ 0, 0 ],
									"dstrect" : [ 0, 0, 1, 1 ],
									"time" : [ 0 ],
									"time_ms" : [ 0 ],
									"colormode" : [ "argb" ],
									"framereport" : [ 0 ],
									"adapt" : [ 1 ],
									"usesrcrect" : [ 0 ],
									"unique" : [ 0 ],
									"looppoints" : [ 0, 0 ]
								}

							}
 ]
					}
,
					"id" : "obj-35",
					"maxclass" : "jit.playlist",
					"numinlets" : 1,
					"numoutlets" : 3,
					"outlettype" : [ "jit_matrix", "", "dictionary" ],
					"output_texture" : 1,
					"patching_rect" : [ 535.3863525390625, 432.217620849609375, 294.0, 118.961761474609375 ]
				}

			}
, 			{
				"box" : 				{
					"fontsize" : 9.0,
					"id" : "obj-22",
					"maxclass" : "comment",
					"numinlets" : 1,
					"numoutlets" : 0,
					"patching_rect" : [ 523.462120056152344, 657.8443603515625, 309.628822326660156, 17.0 ],
					"text" : "ISF is open source under the MIT License, copyright VIDVOX, LLC 2019",
					"textjustification" : 2
				}

			}
, 			{
				"box" : 				{
					"fontface" : 1,
					"fontname" : "Arial",
					"fontsize" : 18.0,
					"id" : "obj-7",
					"maxclass" : "comment",
					"numinlets" : 1,
					"numoutlets" : 0,
					"patching_rect" : [ 323.462120056152344, 466.217620849609375, 166.7955322265625, 27.0 ],
					"text" : "Load the ISF file",
					"textcolor" : [ 0.545098039215686, 0.545098039215686, 0.545098039215686, 1.0 ]
				}

			}
, 			{
				"box" : 				{
					"id" : "obj-19",
					"maxclass" : "comment",
					"numinlets" : 1,
					"numoutlets" : 0,
					"patching_rect" : [ 2.166656494140625, 209.5, 383.0, 20.0 ],
					"text" : "Image Filter example",
					"textjustification" : 1
				}

			}
, 			{
				"box" : 				{
					"fontface" : 1,
					"fontname" : "Arial",
					"fontsize" : 48.0,
					"id" : "obj-36",
					"maxclass" : "comment",
					"numinlets" : 1,
					"numoutlets" : 0,
					"patching_rect" : [ 2.166656494140625, 147.5, 383.0, 60.0 ],
					"text" : "jit.gl.isf",
					"textjustification" : 1
				}

			}
, 			{
				"box" : 				{
					"id" : "obj-4",
					"maxclass" : "newobj",
					"numinlets" : 2,
					"numoutlets" : 1,
					"outlettype" : [ "bang" ],
					"patching_rect" : [ 323.462120056152344, 533.17938232421875, 61.0, 22.0 ],
					"text" : "delay 500"
				}

			}
, 			{
				"box" : 				{
					"id" : "obj-34",
					"maxclass" : "newobj",
					"numinlets" : 1,
					"numoutlets" : 0,
					"patching_rect" : [ 323.462120056152344, 645.17938232421875, 130.0, 22.0 ],
					"text" : "s msgsToISFInlet_filter"
				}

			}
, 			{
				"box" : 				{
					"id" : "obj-33",
					"maxclass" : "newobj",
					"numinlets" : 1,
					"numoutlets" : 1,
					"outlettype" : [ "bang" ],
					"patching_rect" : [ 323.462120056152344, 501.61151123046875, 58.0, 22.0 ],
					"text" : "loadbang"
				}

			}
, 			{
				"box" : 				{
					"id" : "obj-21",
					"maxclass" : "newobj",
					"numinlets" : 1,
					"numoutlets" : 1,
					"outlettype" : [ "" ],
					"patching_rect" : [ 323.462120056152344, 611.17938232421875, 80.0, 22.0 ],
					"text" : "prepend read"
				}

			}
, 			{
				"box" : 				{
					"id" : "obj-20",
					"maxclass" : "message",
					"numinlets" : 2,
					"numoutlets" : 1,
					"outlettype" : [ "" ],
					"patching_rect" : [ 323.462120056152344, 559.17938232421875, 81.0, 22.0 ],
					"text" : "./ASCII_Art.fs"
				}

			}
, 			{
				"box" : 				{
					"id" : "obj-15",
					"maxclass" : "newobj",
					"numinlets" : 1,
					"numoutlets" : 1,
					"outlettype" : [ "" ],
					"patching_rect" : [ 323.462120056152344, 585.17938232421875, 186.0, 22.0 ],
					"saved_object_attributes" : 					{
						"filename" : "reltoabspath.js",
						"parameter_enable" : 0
					}
,
					"text" : "js reltoabspath.js VolumesFormat"
				}

			}
, 			{
				"box" : 				{
					"id" : "obj-8",
					"linecount" : 2,
					"maxclass" : "comment",
					"numinlets" : 1,
					"numoutlets" : 0,
					"patching_rect" : [ 682.181884765625, 1.5, 150.9090576171875, 33.0 ],
					"text" : "Parameters (optional, not generated by jit.gl.isf)",
					"textjustification" : 2
				}

			}
, 			{
				"box" : 				{
					"bgmode" : 1,
					"border" : 1,
					"clickthrough" : 0,
					"enablehscroll" : 0,
					"enablevscroll" : 1,
					"id" : "obj-10",
					"lockeddragscroll" : 0,
					"maxclass" : "bpatcher",
					"name" : "ISF_UI_stack.maxpat",
					"numinlets" : 1,
					"numoutlets" : 1,
					"offset" : [ 0.0, 0.0 ],
					"outlettype" : [ "" ],
					"patching_rect" : [ 531.181884765625, 36.5, 301.9090576171875, 306.40911865234375 ],
					"varname" : "mybpatcher",
					"viewvisibility" : 1
				}

			}
, 			{
				"box" : 				{
					"id" : "obj-25",
					"maxclass" : "newobj",
					"numinlets" : 1,
					"numoutlets" : 0,
					"patching_rect" : [ 531.181884765625, 357.5, 130.0, 22.0 ],
					"text" : "s msgsToISFInlet_filter"
				}

			}
, 			{
				"box" : 				{
					"id" : "obj-13",
					"maxclass" : "newobj",
					"numinlets" : 0,
					"numoutlets" : 1,
					"outlettype" : [ "" ],
					"patching_rect" : [ 531.181884765625, 1.5, 146.0, 22.0 ],
					"text" : "r msgsFromINPUTS_filter"
				}

			}
, 			{
				"box" : 				{
					"id" : "obj-1",
					"linecount" : 3,
					"maxclass" : "comment",
					"numinlets" : 1,
					"numoutlets" : 0,
					"patching_rect" : [ 323.462120056152344, 282.90911865234375, 129.0, 47.0 ],
					"text" : "- render context\n- something to display the textures on",
					"textcolor" : [ 0.545098039215686, 0.545098039215686, 0.545098039215686, 1.0 ]
				}

			}
, 			{
				"box" : 				{
					"fontface" : 1,
					"fontname" : "Arial",
					"fontsize" : 18.0,
					"id" : "obj-30",
					"maxclass" : "comment",
					"numinlets" : 1,
					"numoutlets" : 0,
					"patching_rect" : [ 323.462120056152344, 248.90911865234375, 166.7955322265625, 27.0 ],
					"text" : "GL infrastructure",
					"textcolor" : [ 0.545098039215686, 0.545098039215686, 0.545098039215686, 1.0 ]
				}

			}
, 			{
				"box" : 				{
					"id" : "obj-2",
					"linecount" : 2,
					"maxclass" : "newobj",
					"numinlets" : 1,
					"numoutlets" : 3,
					"outlettype" : [ "", "bang", "" ],
					"patching_rect" : [ 323.462120056152344, 336.90911865234375, 193.0, 35.0 ],
					"text" : "jit.world isffilterctx @enable 1 @shared 1 @output_texture 1"
				}

			}
, 			{
				"box" : 				{
					"id" : "obj-5",
					"maxclass" : "newobj",
					"numinlets" : 1,
					"numoutlets" : 0,
					"patching_rect" : [ 98.037790934244796, 569.0206298828125, 129.0, 22.0 ],
					"text" : "s msgsFromFiles_filter"
				}

			}
, 			{
				"box" : 				{
					"id" : "obj-9",
					"maxclass" : "newobj",
					"numinlets" : 1,
					"numoutlets" : 0,
					"patching_rect" : [ 84.204457600911468, 594.058868408203125, 148.0, 22.0 ],
					"text" : "s msgsFromINPUTS_filter"
				}

			}
, 			{
				"box" : 				{
					"id" : "obj-16",
					"maxclass" : "newobj",
					"numinlets" : 0,
					"numoutlets" : 1,
					"outlettype" : [ "" ],
					"patching_rect" : [ 70.371124267578125, 457.43212890625, 128.0, 22.0 ],
					"text" : "r msgsToISFInlet_filter"
				}

			}
, 			{
				"box" : 				{
					"id" : "obj-17",
					"maxclass" : "newobj",
					"numinlets" : 1,
					"numoutlets" : 4,
					"outlettype" : [ "jit_gl_texture", "", "", "" ],
					"patching_rect" : [ 70.371124267578125, 510.43212890625, 60.5, 22.0 ],
					"text" : "jit.gl.isf"
				}

			}
, 			{
				"box" : 				{
					"fontname" : "Arial",
					"fontsize" : 12.0,
					"id" : "obj-18",
					"linecount" : 3,
					"maxclass" : "newobj",
					"numinlets" : 1,
					"numoutlets" : 2,
					"outlettype" : [ "jit_matrix", "" ],
					"patching_rect" : [ 323.462120056152344, 388.49761962890625, 193.0, 49.0 ],
					"text" : "jit.gl.videoplane isffilterctx @blend_enable 1 @color 1 1 1 1 @transform_reset 2 @layer 1"
				}

			}
, 			{
				"box" : 				{
					"hidden" : 1,
					"id" : "obj-12",
					"maxclass" : "newobj",
					"numinlets" : 0,
					"numoutlets" : 1,
					"outlettype" : [ "" ],
					"patching_rect" : [ 2.166656494140625, -33.0, 91.0, 22.0 ],
					"text" : "r BGImagePath"
				}

			}
, 			{
				"box" : 				{
					"hidden" : 1,
					"id" : "obj-11",
					"maxclass" : "newobj",
					"numinlets" : 1,
					"numoutlets" : 0,
					"patching_rect" : [ 875.0, 576.0, 93.0, 22.0 ],
					"text" : "s BGImagePath"
				}

			}
, 			{
				"box" : 				{
					"hidden" : 1,
					"id" : "obj-51",
					"maxclass" : "newobj",
					"numinlets" : 1,
					"numoutlets" : 1,
					"outlettype" : [ "" ],
					"patching_rect" : [ 875.0, 542.0, 75.0, 22.0 ],
					"text" : "prepend pict"
				}

			}
, 			{
				"box" : 				{
					"hidden" : 1,
					"id" : "obj-50",
					"maxclass" : "message",
					"numinlets" : 2,
					"numoutlets" : 1,
					"outlettype" : [ "" ],
					"patching_rect" : [ 875.0, 490.0, 64.0, 22.0 ],
					"text" : "../icon.png"
				}

			}
, 			{
				"box" : 				{
					"hidden" : 1,
					"id" : "obj-43",
					"maxclass" : "newobj",
					"numinlets" : 1,
					"numoutlets" : 1,
					"outlettype" : [ "" ],
					"patching_rect" : [ 875.0, 516.0, 99.0, 22.0 ],
					"saved_object_attributes" : 					{
						"filename" : "reltoabspath.js",
						"parameter_enable" : 0
					}
,
					"text" : "js reltoabspath.js"
				}

			}
, 			{
				"box" : 				{
					"angle" : 270.0,
					"background" : 1,
					"bgcolor" : [ 0.996078431372549, 0.572549019607843, 0.572549019607843, 1.0 ],
					"bordercolor" : [ 0.0, 0.0, 0.0, 1.0 ],
					"id" : "obj-28",
					"maxclass" : "panel",
					"mode" : 0,
					"numinlets" : 1,
					"numoutlets" : 0,
					"patching_rect" : [ 61.371124267578125, 501.805389404296875, 79.0, 37.626739501953125 ],
					"proportion" : 0.5
				}

			}
, 			{
				"box" : 				{
					"angle" : 270.0,
					"background" : 1,
					"bgcolor" : [ 0.811764705882353, 0.811764705882353, 0.811764705882353, 1.0 ],
					"bordercolor" : [ 0.0, 0.0, 0.0, 1.0 ],
					"id" : "obj-14",
					"maxclass" : "panel",
					"mode" : 0,
					"numinlets" : 1,
					"numoutlets" : 0,
					"patching_rect" : [ 317.462120056152344, 460.59088134765625, 204.0, 214.25347900390625 ],
					"proportion" : 0.5
				}

			}
, 			{
				"box" : 				{
					"angle" : 270.0,
					"background" : 1,
					"bgcolor" : [ 0.811764705882353, 0.811764705882353, 0.811764705882353, 1.0 ],
					"bordercolor" : [ 0.0, 0.0, 0.0, 1.0 ],
					"id" : "obj-24",
					"maxclass" : "panel",
					"mode" : 0,
					"numinlets" : 1,
					"numoutlets" : 0,
					"patching_rect" : [ 317.462120056152344, 243.282379150390625, 204.0, 200.25347900390625 ],
					"proportion" : 0.5
				}

			}
, 			{
				"box" : 				{
					"alpha" : 0.05,
					"autofit" : 1,
					"background" : 1,
					"forceaspect" : 1,
					"id" : "obj-6",
					"ignoreclick" : 1,
					"maxclass" : "fpic",
					"numinlets" : 1,
					"numoutlets" : 1,
					"outlettype" : [ "jit_matrix" ],
					"patching_rect" : [ 2.166656494140625, 1.5, 382.0, 382.0 ],
					"pic" : "icon.png"
				}

			}
, 			{
				"box" : 				{
					"angle" : 270.0,
					"background" : 1,
					"bgcolor" : [ 0.811764705882353, 0.811764705882353, 0.811764705882353, 1.0 ],
					"bordercolor" : [ 0.0, 0.0, 0.0, 1.0 ],
					"id" : "obj-37",
					"maxclass" : "panel",
					"mode" : 0,
					"numinlets" : 1,
					"numoutlets" : 0,
					"patching_rect" : [ 531.181884765625, 405.873260498046875, 301.9090576171875, 150.147369384765625 ],
					"proportion" : 0.5
				}

			}
 ],
		"lines" : [ 			{
				"patchline" : 				{
					"destination" : [ "obj-25", 0 ],
					"source" : [ "obj-10", 0 ]
				}

			}
, 			{
				"patchline" : 				{
					"destination" : [ "obj-6", 0 ],
					"hidden" : 1,
					"source" : [ "obj-12", 0 ]
				}

			}
, 			{
				"patchline" : 				{
					"destination" : [ "obj-10", 0 ],
					"source" : [ "obj-13", 0 ]
				}

			}
, 			{
				"patchline" : 				{
					"destination" : [ "obj-21", 0 ],
					"source" : [ "obj-15", 0 ]
				}

			}
, 			{
				"patchline" : 				{
					"destination" : [ "obj-17", 0 ],
					"source" : [ "obj-16", 0 ]
				}

			}
, 			{
				"patchline" : 				{
					"destination" : [ "obj-18", 0 ],
					"midpoints" : [ 79.871124267578125, 554.43212890625, 260.416622161865234, 554.43212890625, 260.416622161865234, 377.49761962890625, 332.962120056152344, 377.49761962890625 ],
					"source" : [ "obj-17", 0 ]
				}

			}
, 			{
				"patchline" : 				{
					"destination" : [ "obj-5", 0 ],
					"source" : [ "obj-17", 2 ]
				}

			}
, 			{
				"patchline" : 				{
					"destination" : [ "obj-9", 0 ],
					"source" : [ "obj-17", 1 ]
				}

			}
, 			{
				"patchline" : 				{
					"destination" : [ "obj-15", 0 ],
					"source" : [ "obj-20", 0 ]
				}

			}
, 			{
				"patchline" : 				{
					"destination" : [ "obj-34", 0 ],
					"source" : [ "obj-21", 0 ]
				}

			}
, 			{
				"patchline" : 				{
					"destination" : [ "obj-97", 0 ],
					"source" : [ "obj-27", 0 ]
				}

			}
, 			{
				"patchline" : 				{
					"destination" : [ "obj-27", 0 ],
					"order" : 1,
					"source" : [ "obj-32", 0 ]
				}

			}
, 			{
				"patchline" : 				{
					"destination" : [ "obj-29", 0 ],
					"order" : 0,
					"source" : [ "obj-32", 0 ]
				}

			}
, 			{
				"patchline" : 				{
					"destination" : [ "obj-38", 0 ],
					"hidden" : 1,
					"order" : 1,
					"source" : [ "obj-33", 0 ]
				}

			}
, 			{
				"patchline" : 				{
					"destination" : [ "obj-4", 0 ],
					"order" : 2,
					"source" : [ "obj-33", 0 ]
				}

			}
, 			{
				"patchline" : 				{
					"destination" : [ "obj-50", 0 ],
					"hidden" : 1,
					"order" : 0,
					"source" : [ "obj-33", 0 ]
				}

			}
, 			{
				"patchline" : 				{
					"destination" : [ "obj-32", 0 ],
					"source" : [ "obj-35", 0 ]
				}

			}
, 			{
				"patchline" : 				{
					"destination" : [ "obj-39", 0 ],
					"hidden" : 1,
					"source" : [ "obj-38", 0 ]
				}

			}
, 			{
				"patchline" : 				{
					"destination" : [ "obj-35", 0 ],
					"hidden" : 1,
					"source" : [ "obj-39", 0 ]
				}

			}
, 			{
				"patchline" : 				{
					"destination" : [ "obj-20", 0 ],
					"source" : [ "obj-4", 0 ]
				}

			}
, 			{
				"patchline" : 				{
					"destination" : [ "obj-51", 0 ],
					"hidden" : 1,
					"source" : [ "obj-43", 0 ]
				}

			}
, 			{
				"patchline" : 				{
					"destination" : [ "obj-43", 0 ],
					"hidden" : 1,
					"source" : [ "obj-50", 0 ]
				}

			}
, 			{
				"patchline" : 				{
					"destination" : [ "obj-11", 0 ],
					"hidden" : 1,
					"source" : [ "obj-51", 0 ]
				}

			}
 ],
		"dependency_cache" : [ 			{
				"name" : "icon.png",
				"bootpath" : "~/Documents/Max 8/Packages/ISF",
				"patcherrelativepath" : "..",
				"type" : "PNG",
				"implicit" : 1
			}
, 			{
				"name" : "reltoabspath.js",
				"bootpath" : "~/Documents/Max 8/Packages/ISF/javascript",
				"patcherrelativepath" : "../javascript",
				"type" : "TEXT",
				"implicit" : 1
			}
, 			{
				"name" : "ISF_UI_stack.maxpat",
				"bootpath" : "~/Documents/Max 8/Packages/ISF/patchers",
				"patcherrelativepath" : "../patchers",
				"type" : "JSON",
				"implicit" : 1
			}
, 			{
				"name" : "ISF_UI_item.maxpat",
				"bootpath" : "~/Documents/Max 8/Packages/ISF/patchers",
				"patcherrelativepath" : "../patchers",
				"type" : "JSON",
				"implicit" : 1
			}
, 			{
				"name" : "jit_gl_isf_ui_controller.js",
				"bootpath" : "~/Documents/Max 8/Packages/ISF/javascript",
				"patcherrelativepath" : "../javascript",
				"type" : "TEXT",
				"implicit" : 1
			}
, 			{
				"name" : "jit_gl_isf_controller.js",
				"bootpath" : "~/Documents/Max 8/Packages/ISF/javascript",
				"patcherrelativepath" : "../javascript",
				"type" : "TEXT",
				"implicit" : 1
			}
, 			{
				"name" : "chickens.mp4",
				"bootpath" : "C74:/media/jitter",
				"type" : "mpg4",
				"implicit" : 1
			}
, 			{
				"name" : "dust.mp4",
				"bootpath" : "C74:/media/jitter",
				"type" : "mpg4",
				"implicit" : 1
			}
, 			{
				"name" : "sunflower.mp4",
				"bootpath" : "C74:/media/jitter",
				"type" : "mpg4",
				"implicit" : 1
			}
, 			{
				"name" : "jit.gl.isf.mxo",
				"type" : "iLaX"
			}
 ],
		"autosave" : 0
	}

}
