{
	"patcher" : 	{
		"fileversion" : 1,
		"appversion" : 		{
			"major" : 8,
			"minor" : 1,
			"revision" : 0,
			"architecture" : "x64",
			"modernui" : 1
		}
,
		"classnamespace" : "box",
		"rect" : [ 34.0, 79.0, 836.0, 677.0 ],
		"bglocked" : 0,
		"openinpresentation" : 0,
		"default_fontsize" : 12.0,
		"default_fontface" : 0,
		"default_fontname" : "Arial",
		"gridonopen" : 1,
		"gridsize" : [ 15.0, 15.0 ],
		"gridsnaponopen" : 1,
		"objectsnaponopen" : 1,
		"statusbarvisible" : 2,
		"toolbarvisible" : 1,
		"lefttoolbarpinned" : 0,
		"toptoolbarpinned" : 0,
		"righttoolbarpinned" : 0,
		"bottomtoolbarpinned" : 0,
		"toolbars_unpinned_last_save" : 0,
		"tallnewobj" : 0,
		"boxanimatetime" : 200,
		"enablehscroll" : 1,
		"enablevscroll" : 1,
		"devicewidth" : 0.0,
		"description" : "",
		"digest" : "",
		"tags" : "",
		"style" : "",
		"subpatcher_template" : "",
		"boxes" : [ 			{
				"box" : 				{
					"fontsize" : 9.0,
					"id" : "obj-22",
					"maxclass" : "comment",
					"numinlets" : 1,
					"numoutlets" : 0,
					"patching_rect" : [ 523.462120056152344, 657.8443603515625, 309.628822326660156, 17.0 ],
					"text" : "ISF is open source under the MIT License, copyright VIDVOX, LLC 2019",
					"textjustification" : 2
				}

			}
, 			{
				"box" : 				{
					"id" : "obj-19",
					"maxclass" : "comment",
					"numinlets" : 1,
					"numoutlets" : 0,
					"patching_rect" : [ 2.166656494140625, 209.5, 383.0, 20.0 ],
					"text" : "Generator example",
					"textjustification" : 1
				}

			}
, 			{
				"box" : 				{
					"fontface" : 1,
					"fontname" : "Arial",
					"fontsize" : 48.0,
					"id" : "obj-36",
					"maxclass" : "comment",
					"numinlets" : 1,
					"numoutlets" : 0,
					"patching_rect" : [ 2.166656494140625, 147.5, 383.0, 60.0 ],
					"text" : "jit.gl.isf",
					"textjustification" : 1
				}

			}
, 			{
				"box" : 				{
					"hidden" : 1,
					"id" : "obj-33",
					"maxclass" : "newobj",
					"numinlets" : 1,
					"numoutlets" : 1,
					"outlettype" : [ "bang" ],
					"patching_rect" : [ 875.0, 460.59088134765625, 58.0, 22.0 ],
					"text" : "loadbang"
				}

			}
, 			{
				"box" : 				{
					"id" : "obj-8",
					"linecount" : 2,
					"maxclass" : "comment",
					"numinlets" : 1,
					"numoutlets" : 0,
					"patching_rect" : [ 682.181884765625, 1.5, 150.9090576171875, 33.0 ],
					"text" : "Parameters (optional, not generated by jit.gl.isf)",
					"textjustification" : 2
				}

			}
, 			{
				"box" : 				{
					"bgmode" : 1,
					"border" : 1,
					"clickthrough" : 0,
					"enablehscroll" : 0,
					"enablevscroll" : 1,
					"id" : "obj-10",
					"lockeddragscroll" : 0,
					"maxclass" : "bpatcher",
					"name" : "ISF_UI_stack.maxpat",
					"numinlets" : 1,
					"numoutlets" : 1,
					"offset" : [ 0.0, 0.0 ],
					"outlettype" : [ "" ],
					"patching_rect" : [ 531.181884765625, 36.5, 301.9090576171875, 584.5206298828125 ],
					"varname" : "mybpatcher",
					"viewvisibility" : 1
				}

			}
, 			{
				"box" : 				{
					"id" : "obj-25",
					"maxclass" : "newobj",
					"numinlets" : 1,
					"numoutlets" : 0,
					"patching_rect" : [ 531.181884765625, 632.5, 127.0, 22.0 ],
					"text" : "s msgsToISFInlet_gen"
				}

			}
, 			{
				"box" : 				{
					"id" : "obj-13",
					"maxclass" : "newobj",
					"numinlets" : 0,
					"numoutlets" : 1,
					"outlettype" : [ "" ],
					"patching_rect" : [ 531.181884765625, 1.5, 143.0, 22.0 ],
					"text" : "r msgsFromINPUTS_gen"
				}

			}
, 			{
				"box" : 				{
					"frozen_object_attributes" : 					{
						"rect" : [ 905, 45, 1545, 525 ]
					}
,
					"id" : "obj-2",
					"maxclass" : "newobj",
					"numinlets" : 1,
					"numoutlets" : 3,
					"outlettype" : [ "", "bang", "" ],
					"patching_rect" : [ 87.371124267578125, 572.058868408203125, 193.0, 22.0 ],
					"text" : "jit.world isfgenctx @enable 1"
				}

			}
, 			{
				"box" : 				{
					"id" : "obj-5",
					"maxclass" : "newobj",
					"numinlets" : 1,
					"numoutlets" : 0,
					"patching_rect" : [ 169.371124267578125, 523.0206298828125, 127.0, 22.0 ],
					"text" : "s msgsFromFiles_gen"
				}

			}
, 			{
				"box" : 				{
					"id" : "obj-9",
					"maxclass" : "newobj",
					"numinlets" : 1,
					"numoutlets" : 0,
					"patching_rect" : [ 128.371124267578125, 547.539749145507812, 145.0, 22.0 ],
					"text" : "s msgsFromINPUTS_gen"
				}

			}
, 			{
				"box" : 				{
					"id" : "obj-16",
					"maxclass" : "newobj",
					"numinlets" : 0,
					"numoutlets" : 1,
					"outlettype" : [ "" ],
					"patching_rect" : [ 87.371124267578125, 422.43212890625, 125.0, 22.0 ],
					"text" : "r msgsToISFInlet_gen"
				}

			}
, 			{
				"box" : 				{
					"id" : "obj-17",
					"maxclass" : "newobj",
					"numinlets" : 1,
					"numoutlets" : 4,
					"outlettype" : [ "jit_gl_texture", "", "", "" ],
					"patching_rect" : [ 87.371124267578125, 475.43212890625, 142.0, 22.0 ],
					"text" : "jit.gl.isf @file \"Grid Warp\""
				}

			}
, 			{
				"box" : 				{
					"hidden" : 1,
					"id" : "obj-12",
					"maxclass" : "newobj",
					"numinlets" : 0,
					"numoutlets" : 1,
					"outlettype" : [ "" ],
					"patching_rect" : [ 2.166656494140625, -33.0, 91.0, 22.0 ],
					"text" : "r BGImagePath"
				}

			}
, 			{
				"box" : 				{
					"hidden" : 1,
					"id" : "obj-11",
					"maxclass" : "newobj",
					"numinlets" : 1,
					"numoutlets" : 0,
					"patching_rect" : [ 875.0, 576.0, 93.0, 22.0 ],
					"text" : "s BGImagePath"
				}

			}
, 			{
				"box" : 				{
					"hidden" : 1,
					"id" : "obj-51",
					"maxclass" : "newobj",
					"numinlets" : 1,
					"numoutlets" : 1,
					"outlettype" : [ "" ],
					"patching_rect" : [ 875.0, 542.0, 75.0, 22.0 ],
					"text" : "prepend pict"
				}

			}
, 			{
				"box" : 				{
					"hidden" : 1,
					"id" : "obj-50",
					"maxclass" : "message",
					"numinlets" : 2,
					"numoutlets" : 1,
					"outlettype" : [ "" ],
					"patching_rect" : [ 875.0, 490.0, 64.0, 22.0 ],
					"text" : "../icon.png"
				}

			}
, 			{
				"box" : 				{
					"hidden" : 1,
					"id" : "obj-43",
					"maxclass" : "newobj",
					"numinlets" : 1,
					"numoutlets" : 1,
					"outlettype" : [ "" ],
					"patching_rect" : [ 875.0, 516.0, 99.0, 22.0 ],
					"saved_object_attributes" : 					{
						"filename" : "reltoabspath.js",
						"parameter_enable" : 0
					}
,
					"text" : "js reltoabspath.js"
				}

			}
, 			{
				"box" : 				{
					"angle" : 270.0,
					"background" : 1,
					"bgcolor" : [ 0.996078431372549, 0.572549019607843, 0.572549019607843, 1.0 ],
					"bordercolor" : [ 0.0, 0.0, 0.0, 1.0 ],
					"id" : "obj-28",
					"maxclass" : "panel",
					"mode" : 0,
					"numinlets" : 1,
					"numoutlets" : 0,
					"patching_rect" : [ 78.371124267578125, 467.118759155273438, 159.0, 37.313369750976562 ],
					"proportion" : 0.5
				}

			}
, 			{
				"box" : 				{
					"alpha" : 0.05,
					"autofit" : 1,
					"background" : 1,
					"forceaspect" : 1,
					"id" : "obj-6",
					"ignoreclick" : 1,
					"maxclass" : "fpic",
					"numinlets" : 1,
					"numoutlets" : 1,
					"outlettype" : [ "jit_matrix" ],
					"patching_rect" : [ 2.166656494140625, 1.5, 382.0, 382.0 ],
					"pic" : "icon.png"
				}

			}
 ],
		"lines" : [ 			{
				"patchline" : 				{
					"destination" : [ "obj-25", 0 ],
					"source" : [ "obj-10", 0 ]
				}

			}
, 			{
				"patchline" : 				{
					"destination" : [ "obj-6", 0 ],
					"hidden" : 1,
					"source" : [ "obj-12", 0 ]
				}

			}
, 			{
				"patchline" : 				{
					"destination" : [ "obj-10", 0 ],
					"source" : [ "obj-13", 0 ]
				}

			}
, 			{
				"patchline" : 				{
					"destination" : [ "obj-17", 0 ],
					"source" : [ "obj-16", 0 ]
				}

			}
, 			{
				"patchline" : 				{
					"destination" : [ "obj-2", 0 ],
					"source" : [ "obj-17", 0 ]
				}

			}
, 			{
				"patchline" : 				{
					"destination" : [ "obj-5", 0 ],
					"source" : [ "obj-17", 2 ]
				}

			}
, 			{
				"patchline" : 				{
					"destination" : [ "obj-9", 0 ],
					"source" : [ "obj-17", 1 ]
				}

			}
, 			{
				"patchline" : 				{
					"destination" : [ "obj-50", 0 ],
					"hidden" : 1,
					"source" : [ "obj-33", 0 ]
				}

			}
, 			{
				"patchline" : 				{
					"destination" : [ "obj-51", 0 ],
					"hidden" : 1,
					"source" : [ "obj-43", 0 ]
				}

			}
, 			{
				"patchline" : 				{
					"destination" : [ "obj-43", 0 ],
					"hidden" : 1,
					"source" : [ "obj-50", 0 ]
				}

			}
, 			{
				"patchline" : 				{
					"destination" : [ "obj-11", 0 ],
					"hidden" : 1,
					"source" : [ "obj-51", 0 ]
				}

			}
 ],
		"parameters" : 		{
			"obj-10::obj-35::obj-4" : [ "majorDivisions", "majorDivisions", 0 ],
			"obj-10::obj-29::obj-4" : [ "center", "center", 0 ],
			"obj-10::obj-33::obj-4" : [ "lineColor", "lineColor", 0 ],
			"obj-10::obj-37::obj-4" : [ "minorHDivisions", "minorHDivisions", 0 ],
			"obj-10::obj-25::obj-4" : [ "level", "level", 0 ],
			"obj-10::obj-41::obj-4" : [ "majorDivisionLineWidth", "majorDivisionLineWidth", 0 ],
			"obj-10::obj-27::obj-4" : [ "radius", "radius", 0 ],
			"obj-10::obj-31::obj-4" : [ "bgColor", "bgColor", 0 ],
			"obj-10::obj-39::obj-4" : [ "minorVDivisions", "minorVDivisions", 0 ],
			"obj-10::obj-43::obj-4" : [ "square", "square", 0 ],
			"parameterbanks" : 			{

			}
,
			"parameter_overrides" : 			{
				"obj-10::obj-35::obj-4" : 				{
					"parameter_longname" : "majorDivisions",
					"parameter_shortname" : "majorDivisions"
				}
,
				"obj-10::obj-29::obj-4" : 				{
					"parameter_longname" : "center",
					"parameter_shortname" : "center"
				}
,
				"obj-10::obj-33::obj-4" : 				{
					"parameter_longname" : "lineColor",
					"parameter_shortname" : "lineColor"
				}
,
				"obj-10::obj-37::obj-4" : 				{
					"parameter_longname" : "minorHDivisions",
					"parameter_shortname" : "minorHDivisions"
				}
,
				"obj-10::obj-25::obj-4" : 				{
					"parameter_longname" : "level",
					"parameter_shortname" : "level"
				}
,
				"obj-10::obj-41::obj-4" : 				{
					"parameter_longname" : "majorDivisionLineWidth",
					"parameter_shortname" : "majorDivisionLineWidth"
				}
,
				"obj-10::obj-27::obj-4" : 				{
					"parameter_longname" : "radius",
					"parameter_shortname" : "radius"
				}
,
				"obj-10::obj-31::obj-4" : 				{
					"parameter_longname" : "bgColor",
					"parameter_shortname" : "bgColor"
				}
,
				"obj-10::obj-39::obj-4" : 				{
					"parameter_longname" : "minorVDivisions",
					"parameter_shortname" : "minorVDivisions"
				}
,
				"obj-10::obj-43::obj-4" : 				{
					"parameter_longname" : "square",
					"parameter_shortname" : "square"
				}

			}

		}
,
		"dependency_cache" : [ 			{
				"name" : "icon.png",
				"bootpath" : "~/dev/cycling/jit.gl.isf/jit.gl.isf/Packages/ISF",
				"patcherrelativepath" : "..",
				"type" : "PNG",
				"implicit" : 1
			}
, 			{
				"name" : "reltoabspath.js",
				"bootpath" : "~/dev/cycling/jit.gl.isf/jit.gl.isf/Packages/ISF/javascript",
				"patcherrelativepath" : "../javascript",
				"type" : "TEXT",
				"implicit" : 1
			}
, 			{
				"name" : "ISF_UI_stack.maxpat",
				"bootpath" : "~/dev/cycling/jit.gl.isf/jit.gl.isf/Packages/ISF/patchers",
				"patcherrelativepath" : ".",
				"type" : "JSON",
				"implicit" : 1
			}
, 			{
				"name" : "jit_gl_isf_ui_controller.js",
				"bootpath" : "~/dev/cycling/jit.gl.isf/jit.gl.isf/Packages/ISF/javascript",
				"patcherrelativepath" : "../javascript",
				"type" : "TEXT",
				"implicit" : 1
			}
, 			{
				"name" : "jit_gl_isf_controller.js",
				"bootpath" : "~/dev/cycling/jit.gl.isf/jit.gl.isf/Packages/ISF/javascript",
				"patcherrelativepath" : "../javascript",
				"type" : "TEXT",
				"implicit" : 1
			}
, 			{
				"name" : "jit.gl.isf.mxo",
				"type" : "iLaX"
			}
 ],
		"autosave" : 0
	}

}
