{
	"patcher" : 	{
		"fileversion" : 1,
		"appversion" : 		{
			"major" : 8,
			"minor" : 1,
			"revision" : 1,
			"architecture" : "x64",
			"modernui" : 1
		}
,
		"classnamespace" : "box",
		"rect" : [ 824.0, 99.0, 838.0, 684.0 ],
		"bglocked" : 0,
		"openinpresentation" : 0,
		"default_fontsize" : 12.0,
		"default_fontface" : 0,
		"default_fontname" : "Arial",
		"gridonopen" : 1,
		"gridsize" : [ 15.0, 15.0 ],
		"gridsnaponopen" : 1,
		"objectsnaponopen" : 1,
		"statusbarvisible" : 2,
		"toolbarvisible" : 1,
		"lefttoolbarpinned" : 0,
		"toptoolbarpinned" : 0,
		"righttoolbarpinned" : 0,
		"bottomtoolbarpinned" : 0,
		"toolbars_unpinned_last_save" : 0,
		"tallnewobj" : 0,
		"boxanimatetime" : 200,
		"enablehscroll" : 1,
		"enablevscroll" : 1,
		"devicewidth" : 0.0,
		"description" : "",
		"digest" : "",
		"tags" : "",
		"style" : "",
		"subpatcher_template" : "",
		"boxes" : [ 			{
				"box" : 				{
					"id" : "obj-14",
					"maxclass" : "newobj",
					"numinlets" : 1,
					"numoutlets" : 0,
					"patching_rect" : [ 861.0, 397.0, 54.0, 22.0 ],
					"text" : "onecopy"
				}

			}
, 			{
				"box" : 				{
					"hidden" : 1,
					"id" : "obj-8",
					"maxclass" : "newobj",
					"numinlets" : 1,
					"numoutlets" : 1,
					"outlettype" : [ "" ],
					"patching_rect" : [ 261.166656494140625, 409.0, 162.0, 22.0 ],
					"text" : "loadmess symbol \"ASCII Art\""
				}

			}
, 			{
				"box" : 				{
					"id" : "obj-5",
					"linecount" : 3,
					"maxclass" : "comment",
					"numinlets" : 1,
					"numoutlets" : 0,
					"patching_rect" : [ 13.166656494140625, 280.861877882812678, 363.0, 47.0 ],
					"text" : "Filters operate on a single incoming image stream to manipulate the final output in a variety of ways, from changing colorspace to applying, blurs, masks or transforms."
				}

			}
, 			{
				"box" : 				{
					"id" : "obj-21",
					"linecount" : 2,
					"maxclass" : "comment",
					"numinlets" : 1,
					"numoutlets" : 0,
					"patching_rect" : [ 13.166656494140625, 236.861877882812678, 363.0, 33.0 ],
					"text" : "Get a list of all currently installed filter type ISF files, then populate a umenu with the file names for easy navigation."
				}

			}
, 			{
				"box" : 				{
					"id" : "obj-29",
					"maxclass" : "newobj",
					"numinlets" : 1,
					"numoutlets" : 0,
					"patching_rect" : [ 311.041656494140625, 559.172501713867632, 78.0, 22.0 ],
					"text" : "s ToISF_filter"
				}

			}
, 			{
				"box" : 				{
					"bubble" : 1,
					"id" : "obj-24",
					"linecount" : 2,
					"maxclass" : "comment",
					"numinlets" : 1,
					"numoutlets" : 0,
					"patching_rect" : [ 381.916656494140625, 495.184006620117543, 129.0, 37.0 ],
					"text" : "Select a generator file and explore!"
				}

			}
, 			{
				"box" : 				{
					"id" : "obj-15",
					"maxclass" : "message",
					"numinlets" : 2,
					"numoutlets" : 1,
					"outlettype" : [ "" ],
					"patching_rect" : [ 311.041656494140625, 529.184006620117543, 49.0, 22.0 ],
					"text" : "read $1"
				}

			}
, 			{
				"box" : 				{
					"id" : "obj-7",
					"maxclass" : "newobj",
					"numinlets" : 2,
					"numoutlets" : 2,
					"outlettype" : [ "bang", "" ],
					"patching_rect" : [ 226.166656494140625, 472.172501713867632, 54.0, 22.0 ],
					"text" : "sel done"
				}

			}
, 			{
				"box" : 				{
					"id" : "obj-64",
					"maxclass" : "message",
					"numinlets" : 2,
					"numoutlets" : 1,
					"outlettype" : [ "" ],
					"patching_rect" : [ 281.166656494140625, 472.172501713867632, 70.0, 22.0 ],
					"text" : "append $1"
				}

			}
, 			{
				"box" : 				{
					"id" : "obj-61",
					"maxclass" : "newobj",
					"numinlets" : 3,
					"numoutlets" : 3,
					"outlettype" : [ "", "", "" ],
					"patching_rect" : [ 226.166656494140625, 443.613755596680221, 129.0, 22.0 ],
					"text" : "route filenames name"
				}

			}
, 			{
				"box" : 				{
					"id" : "obj-57",
					"maxclass" : "newobj",
					"numinlets" : 1,
					"numoutlets" : 1,
					"outlettype" : [ "bang" ],
					"patching_rect" : [ 22.166656494140625, 430.361877882812678, 62.0, 22.0 ],
					"text" : "loadbang"
				}

			}
, 			{
				"box" : 				{
					"id" : "obj-89",
					"items" : [ "3d Rotate", ",", "ASCII Art", ",", "Apply Alpha", ",", "Auto Color Tone", ",", "Auto Colors Histogram", ",", "Auto Levels", ",", "Bad TV", ",", "Bloom", ",", "Boxinator", ",", "Bright", ",", "Broken LCD", ",", "Bump Distortion", ",", "CMYK Halftone", ",", "CMYK Halftone-Lookaround", ",", "Channel Slide", ",", "Chroma Desaturation Mask", ",", "Chroma Mask", ",", "Chroma Zoom", ",", "Circle Splash Distortion", ",", "Circle Warp", ",", "Circle Wrap Distortion", ",", "Circular Feedback Mask", ",", "Circular Screen", ",", "City Lights", ",", "Collage", ",", "Color Blowout", ",", "Color Controls", ",", "Color Invert", ",", "Color Levels", ",", "Color Monochrome", ",", "Color Posterize", ",", "Color Relookup", ",", "Color Replacement", ",", "Comet Tails", ",", "Convergence", ",", "Corner Color Tint", ",", "Cubic Warp", ",", "Deinterlace", ",", "Diagonal Blur", ",", "Diagonalize", ",", "Dilate", ",", "Dilate-Fast", ",", "Dirty Lens", ",", "Displace", ",", "Dither-Bayer", ",", "Dot Screen", ",", "Double Vision", ",", "Dual Side Scroller And Flip", ",", "Duotone", ",", "Echo Trace", ",", "Edge Blowout", ",", "Edge Blur", ",", "Edge Distort", ",", "Edge Trace", ",", "Edges", ",", "Emboss", ",", "Erode", ",", "Erode-Fast", ",", "Exposure Adjust", ",", "False Color", ",", "Fast Blur", ",", "FastMosh", ",", "Flip H", ",", "Flip V", ",", "Flipbook", ",", "Freeze Frame", ",", "Frosted Glass", ",", "Gamma Correction", ",", "Ghosting", ",", "Glitch Shifter", ",", "Gloom", ",", "Glow", ",", "Glow-Fast", ",", "God Rays", ",", "HSVtoRGB", ",", "Hatch Blur", ",", "HorizVertHold", ",", "Hyperspace", ",", "Interlace", ",", "Interlace Mirror", ",", "Kaleidoscope", ",", "Kaleidoscope Tile", ",", "Key Frame Artifacts", ",", "Layer Mask", ",", "Layer Position", ",", "Lens Flare", ",", "Line Screen", ",", "Luminance Posterize", ",", "Maximum Component", ",", "Median", ",", "Meta Image", ",", "Micro Buffer", ",", "Micro Buffer RGB", ",", "Minimum Component", ",", "Mirror", ",", "Mirror Edge", ",", "Motion Heat Map", ",", "Motion Mask", ",", "Multi Hue Shift", ",", "Multi Pass Gaussian Blur", ",", "Multi-Pixellate", ",", "MultiFrame 2x2", ",", "MultiFrame 3x3", ",", "Neon", ",", "Night Vision", ",", "Noise Adapt", ",", "Noise Displace", ",", "Noise Pixellate", ",", "Optical Flow Distort", ",", "Optical Flow Generator", ",", "Pixel Shifter", ",", "Pixellate", ",", "Poly Glitch", ",", "Posterize", ",", "Power Warp", ",", "Quad Mask", ",", "Quad Tile", ",", "RGB EQ", ",", "RGB Halftone", ",", "RGB Halftone-lookaround", ",", "RGB Invert", ",", "RGB Strobe", ",", "RGB Trails 3.0", ",", "RGBA Swap", ",", "RGBtoHSV", ",", "Radial Replicate", ",", "Random Freeze", ",", "Random Squares Mask", ",", "Replicate", ",", "Replicate Random", ",", "Resize Glitch", ",", "Ripples", ",", "Rotate", ",", "Saturation Bleed", ",", "Sepia Tone", ",", "Set Alpha", ",", "Shake", ",", "Shape Mask", ",", "Shape Morph Feedback Mask", ",", "Shape Morph Wrap", ",", "Sharpen Luminance", ",", "Sharpen RGB", ",", "Shockwave", ",", "Shockwave Pulse", ",", "Show Alpha", ",", "Side Scroller And Flip", ",", "Sine Warp Tile", ",", "Sketch", ",", "Sliding Strips", ",", "Slit Scan", ",", "Smoke Screen", ",", "Smudged Lens", ",", "Soft Blur", ",", "Soft Flip", ",", "Solarize", ",", "Sorting Smear", ",", "Sphere Map", ",", "Strobe", ",", "Thermal Camera", ",", "Time Glitch RGB", ",", "Toon", ",", "Trail Mask", ",", "Trapezoid Distortion", ",", "Triangle Warp", ",", "Triangles", ",", "Trio Tone", ",", "Triple Rotate", ",", "Twirl", ",", "Unsharp Mask", ",", "VHS Glitch", ",", "VVMotionBlur 3.0", ",", "Vertex Manipulator", ",", "Vertical Tearing", ",", "Vibrance", ",", "Waveform Displace", ",", "White Point Adjust", ",", "XYZoom", ",", "Y|C Time Blur", ",", "Zoom", ",", "Zooming Feedback", ",", "v002 Bleach Bypass", ",", "v002 Crosshatch", ",", "v002 Dilate", ",", "v002 Erode", ",", "v002 Light Leak", ",", "v002 Technicolor", ",", "v002 Vignette", ",", "v002-CRT-Displacement", ",", "v002-CRT-Mask" ],
					"maxclass" : "umenu",
					"numinlets" : 1,
					"numoutlets" : 3,
					"outlettype" : [ "int", "", "" ],
					"parameter_enable" : 0,
					"patching_rect" : [ 261.166656494140625, 502.684006620117543, 118.749999999999972, 22.0 ],
					"style" : "redness"
				}

			}
, 			{
				"box" : 				{
					"id" : "obj-2",
					"maxclass" : "newobj",
					"numinlets" : 1,
					"numoutlets" : 3,
					"outlettype" : [ "", "bang", "" ],
					"patching_rect" : [ 22.166656494140625, 622.058868408203125, 164.0, 22.0 ],
					"text" : "jit.world isffilterctx @enable 1"
				}

			}
, 			{
				"box" : 				{
					"id" : "obj-9",
					"maxclass" : "newobj",
					"numinlets" : 1,
					"numoutlets" : 0,
					"patching_rect" : [ 63.166656494140625, 597.539749145507812, 87.0, 22.0 ],
					"text" : "s params_filter"
				}

			}
, 			{
				"box" : 				{
					"id" : "obj-16",
					"maxclass" : "newobj",
					"numinlets" : 0,
					"numoutlets" : 1,
					"outlettype" : [ "" ],
					"patching_rect" : [ 10.166656494140625, 487.172501713867632, 76.0, 22.0 ],
					"text" : "r ToISF_filter"
				}

			}
, 			{
				"box" : 				{
					"id" : "obj-17",
					"maxclass" : "newobj",
					"numinlets" : 1,
					"numoutlets" : 4,
					"outlettype" : [ "jit_gl_texture", "", "", "" ],
					"patching_rect" : [ 22.166656494140625, 525.43212890625, 137.0, 22.0 ],
					"text" : "jit.gl.isf @file \"ASCII Art\""
				}

			}
, 			{
				"box" : 				{
					"id" : "obj-3",
					"maxclass" : "message",
					"numinlets" : 2,
					"numoutlets" : 1,
					"outlettype" : [ "" ],
					"patching_rect" : [ 22.166656494140625, 458.613755596680221, 89.0, 22.0 ],
					"text" : "filter_filenames"
				}

			}
, 			{
				"box" : 				{
					"hidden" : 1,
					"id" : "obj-4",
					"maxclass" : "message",
					"numinlets" : 2,
					"numoutlets" : 1,
					"outlettype" : [ "" ],
					"patching_rect" : [ 931.0, 488.717620849609375, 29.5, 22.0 ],
					"text" : "1"
				}

			}
, 			{
				"box" : 				{
					"hidden" : 1,
					"id" : "obj-1",
					"maxclass" : "newobj",
					"numinlets" : 2,
					"numoutlets" : 1,
					"outlettype" : [ "bang" ],
					"patching_rect" : [ 931.0, 462.717620849609375, 67.0, 22.0 ],
					"text" : "delay 1000"
				}

			}
, 			{
				"box" : 				{
					"id" : "obj-44",
					"maxclass" : "comment",
					"numinlets" : 1,
					"numoutlets" : 0,
					"patching_rect" : [ 521.3863525390625, 464.672501713867632, 284.0, 20.0 ],
					"text" : "Use one of these built-in videos to preview the filter"
				}

			}
, 			{
				"box" : 				{
					"id" : "obj-97",
					"maxclass" : "newobj",
					"numinlets" : 1,
					"numoutlets" : 0,
					"patching_rect" : [ 521.3863525390625, 611.92974853515625, 78.0, 22.0 ],
					"text" : "s ToISF_filter"
				}

			}
, 			{
				"box" : 				{
					"clipheight" : 38.653920491536461,
					"data" : 					{
						"clips" : [ 							{
								"absolutepath" : "chickens.mp4",
								"filename" : "chickens.mp4",
								"filekind" : "moviefile",
								"loop" : 1,
								"content_state" : 								{
									"outputmode" : [ 1 ],
									"out_name" : [ "u139003754" ],
									"dim" : [ 1, 1 ],
									"cache_size" : [ 0.100000001490116 ],
									"looppoints" : [ 0, 0 ],
									"vol" : [ 1.0 ],
									"usesrcrect" : [ 0 ],
									"loopend" : [ 0 ],
									"looppoints_ms" : [ 0, 0 ],
									"time_ms" : [ 0 ],
									"moviefile" : [ "" ],
									"automatic" : [ 0 ],
									"output_texture" : [ 0 ],
									"fps" : [ 0.0 ],
									"drawto" : [ "" ],
									"timescale" : [ 600 ],
									"time" : [ 0 ],
									"engine" : [ "avf" ],
									"dstrect" : [ 0, 0, 1, 1 ],
									"usedstrect" : [ 0 ],
									"loopreport" : [ 0 ],
									"adapt" : [ 1 ],
									"colormode" : [ "argb" ],
									"unique" : [ 0 ],
									"loopstart" : [ 0 ],
									"framereport" : [ 0 ],
									"looppoints_secs" : [ 0.0, 0.0 ],
									"time_secs" : [ 0.0 ],
									"texture_name" : [ "u737003752" ],
									"interp" : [ 0 ],
									"framecount" : [ 0 ],
									"duration" : [ 0 ],
									"position" : [ 0.0 ],
									"rate" : [ 1.0 ],
									"autostart" : [ 1 ],
									"srcrect" : [ 0, 0, 1, 1 ]
								}

							}
, 							{
								"absolutepath" : "dust.mp4",
								"filename" : "dust.mp4",
								"filekind" : "moviefile",
								"loop" : 1,
								"content_state" : 								{
									"outputmode" : [ 1 ],
									"out_name" : [ "u139003754" ],
									"dim" : [ 1, 1 ],
									"cache_size" : [ 0.100000001490116 ],
									"looppoints" : [ 0, 0 ],
									"vol" : [ 1.0 ],
									"usesrcrect" : [ 0 ],
									"loopend" : [ 0 ],
									"looppoints_ms" : [ 0, 0 ],
									"time_ms" : [ 0 ],
									"moviefile" : [ "" ],
									"automatic" : [ 0 ],
									"output_texture" : [ 0 ],
									"fps" : [ 0.0 ],
									"drawto" : [ "" ],
									"timescale" : [ 600 ],
									"time" : [ 0 ],
									"engine" : [ "avf" ],
									"dstrect" : [ 0, 0, 1, 1 ],
									"usedstrect" : [ 0 ],
									"loopreport" : [ 0 ],
									"adapt" : [ 1 ],
									"colormode" : [ "argb" ],
									"unique" : [ 0 ],
									"loopstart" : [ 0 ],
									"framereport" : [ 0 ],
									"looppoints_secs" : [ 0.0, 0.0 ],
									"time_secs" : [ 0.0 ],
									"texture_name" : [ "u737003752" ],
									"interp" : [ 0 ],
									"framecount" : [ 0 ],
									"duration" : [ 0 ],
									"position" : [ 0.0 ],
									"rate" : [ 1.0 ],
									"autostart" : [ 1 ],
									"srcrect" : [ 0, 0, 1, 1 ]
								}

							}
, 							{
								"absolutepath" : "sunflower.mp4",
								"filename" : "sunflower.mp4",
								"filekind" : "moviefile",
								"loop" : 1,
								"content_state" : 								{
									"outputmode" : [ 1 ],
									"out_name" : [ "u139003754" ],
									"dim" : [ 1, 1 ],
									"cache_size" : [ 0.100000001490116 ],
									"looppoints" : [ 0, 0 ],
									"vol" : [ 1.0 ],
									"usesrcrect" : [ 0 ],
									"loopend" : [ 0 ],
									"looppoints_ms" : [ 0, 0 ],
									"time_ms" : [ 0 ],
									"moviefile" : [ "" ],
									"automatic" : [ 0 ],
									"output_texture" : [ 0 ],
									"fps" : [ 0.0 ],
									"drawto" : [ "" ],
									"timescale" : [ 600 ],
									"time" : [ 0 ],
									"engine" : [ "avf" ],
									"dstrect" : [ 0, 0, 1, 1 ],
									"usedstrect" : [ 0 ],
									"loopreport" : [ 0 ],
									"adapt" : [ 1 ],
									"colormode" : [ "argb" ],
									"unique" : [ 0 ],
									"loopstart" : [ 0 ],
									"framereport" : [ 0 ],
									"looppoints_secs" : [ 0.0, 0.0 ],
									"time_secs" : [ 0.0 ],
									"texture_name" : [ "u737003752" ],
									"interp" : [ 0 ],
									"framecount" : [ 0 ],
									"duration" : [ 0 ],
									"position" : [ 0.0 ],
									"rate" : [ 1.0 ],
									"autostart" : [ 1 ],
									"srcrect" : [ 0, 0, 1, 1 ]
								}

							}
 ]
					}
,
					"id" : "obj-35",
					"maxclass" : "jit.playlist",
					"numinlets" : 1,
					"numoutlets" : 3,
					"outlettype" : [ "jit_matrix", "", "dictionary" ],
					"output_texture" : 1,
					"patching_rect" : [ 521.3863525390625, 487.172501713867632, 294.0, 118.961761474609375 ]
				}

			}
, 			{
				"box" : 				{
					"fontsize" : 9.0,
					"id" : "obj-22",
					"maxclass" : "comment",
					"numinlets" : 1,
					"numoutlets" : 0,
					"patching_rect" : [ 509.462120056152344, 657.8443603515625, 309.628822326660156, 17.0 ],
					"text" : "ISF is open source under the MIT License, copyright VIDVOX, LLC 2019",
					"textjustification" : 2
				}

			}
, 			{
				"box" : 				{
					"id" : "obj-19",
					"maxclass" : "comment",
					"numinlets" : 1,
					"numoutlets" : 0,
					"patching_rect" : [ 2.166656494140625, 209.5, 383.0, 20.0 ],
					"text" : "Image Filter example",
					"textjustification" : 1
				}

			}
, 			{
				"box" : 				{
					"fontface" : 1,
					"fontname" : "Arial",
					"fontsize" : 48.0,
					"id" : "obj-36",
					"maxclass" : "comment",
					"numinlets" : 1,
					"numoutlets" : 0,
					"patching_rect" : [ 2.166656494140625, 147.5, 383.0, 60.0 ],
					"text" : "jit.gl.isf",
					"textjustification" : 1
				}

			}
, 			{
				"box" : 				{
					"hidden" : 1,
					"id" : "obj-33",
					"maxclass" : "newobj",
					"numinlets" : 1,
					"numoutlets" : 1,
					"outlettype" : [ "bang" ],
					"patching_rect" : [ 861.0, 449.61151123046875, 58.0, 22.0 ],
					"text" : "loadbang"
				}

			}
, 			{
				"box" : 				{
					"bgmode" : 1,
					"border" : 1,
					"clickthrough" : 0,
					"enablehscroll" : 0,
					"enablevscroll" : 1,
					"id" : "obj-10",
					"lockeddragscroll" : 0,
					"maxclass" : "bpatcher",
					"name" : "ISF_UI_stack.maxpat",
					"numinlets" : 1,
					"numoutlets" : 1,
					"offset" : [ 0.0, 0.0 ],
					"outlettype" : [ "" ],
					"patching_rect" : [ 517.181884765625, 36.5, 301.9090576171875, 388.40911865234375 ],
					"varname" : "mybpatcher",
					"viewvisibility" : 1
				}

			}
, 			{
				"box" : 				{
					"id" : "obj-25",
					"maxclass" : "newobj",
					"numinlets" : 1,
					"numoutlets" : 0,
					"patching_rect" : [ 517.181884765625, 430.361877882812678, 78.0, 22.0 ],
					"text" : "s ToISF_filter"
				}

			}
, 			{
				"box" : 				{
					"id" : "obj-13",
					"maxclass" : "newobj",
					"numinlets" : 0,
					"numoutlets" : 1,
					"outlettype" : [ "" ],
					"patching_rect" : [ 517.181884765625, 1.5, 85.0, 22.0 ],
					"text" : "r params_filter"
				}

			}
, 			{
				"box" : 				{
					"hidden" : 1,
					"id" : "obj-12",
					"maxclass" : "newobj",
					"numinlets" : 0,
					"numoutlets" : 1,
					"outlettype" : [ "" ],
					"patching_rect" : [ -11.833343505859375, -33.0, 91.0, 22.0 ],
					"text" : "r BGImagePath"
				}

			}
, 			{
				"box" : 				{
					"hidden" : 1,
					"id" : "obj-11",
					"maxclass" : "newobj",
					"numinlets" : 1,
					"numoutlets" : 0,
					"patching_rect" : [ 861.0, 576.0, 93.0, 22.0 ],
					"text" : "s BGImagePath"
				}

			}
, 			{
				"box" : 				{
					"hidden" : 1,
					"id" : "obj-51",
					"maxclass" : "newobj",
					"numinlets" : 1,
					"numoutlets" : 1,
					"outlettype" : [ "" ],
					"patching_rect" : [ 861.0, 542.0, 75.0, 22.0 ],
					"text" : "prepend pict"
				}

			}
, 			{
				"box" : 				{
					"hidden" : 1,
					"id" : "obj-50",
					"maxclass" : "message",
					"numinlets" : 2,
					"numoutlets" : 1,
					"outlettype" : [ "" ],
					"patching_rect" : [ 861.0, 490.0, 64.0, 22.0 ],
					"text" : "../icon.png"
				}

			}
, 			{
				"box" : 				{
					"hidden" : 1,
					"id" : "obj-43",
					"maxclass" : "newobj",
					"numinlets" : 1,
					"numoutlets" : 1,
					"outlettype" : [ "" ],
					"patching_rect" : [ 861.0, 516.0, 99.0, 22.0 ],
					"saved_object_attributes" : 					{
						"filename" : "reltoabspath.js",
						"parameter_enable" : 0
					}
,
					"text" : "js reltoabspath.js"
				}

			}
, 			{
				"box" : 				{
					"alpha" : 0.05,
					"autofit" : 1,
					"background" : 1,
					"forceaspect" : 1,
					"id" : "obj-6",
					"ignoreclick" : 1,
					"maxclass" : "fpic",
					"numinlets" : 1,
					"numoutlets" : 1,
					"outlettype" : [ "jit_matrix" ],
					"patching_rect" : [ 2.166656494140625, 1.5, 382.0, 382.0 ],
					"pic" : "icon.png"
				}

			}
, 			{
				"box" : 				{
					"angle" : 270.0,
					"background" : 1,
					"bgcolor" : [ 0.811764705882353, 0.811764705882353, 0.811764705882353, 1.0 ],
					"bordercolor" : [ 0.0, 0.0, 0.0, 1.0 ],
					"id" : "obj-37",
					"maxclass" : "panel",
					"mode" : 0,
					"numinlets" : 1,
					"numoutlets" : 0,
					"patching_rect" : [ 517.181884765625, 460.828141362305132, 301.9090576171875, 150.147369384765625 ],
					"proportion" : 0.5
				}

			}
, 			{
				"box" : 				{
					"angle" : 270.0,
					"background" : 1,
					"bgcolor" : [ 0.996078431372549, 0.572549019607843, 0.572549019607843, 1.0 ],
					"bordercolor" : [ 0.0, 0.0, 0.0, 1.0 ],
					"id" : "obj-28",
					"maxclass" : "panel",
					"mode" : 0,
					"numinlets" : 1,
					"numoutlets" : 0,
					"patching_rect" : [ 13.166656494140625, 517.118759155273438, 159.0, 37.313369750976562 ],
					"proportion" : 0.5
				}

			}
 ],
		"lines" : [ 			{
				"patchline" : 				{
					"destination" : [ "obj-4", 0 ],
					"hidden" : 1,
					"source" : [ "obj-1", 0 ]
				}

			}
, 			{
				"patchline" : 				{
					"destination" : [ "obj-25", 0 ],
					"source" : [ "obj-10", 0 ]
				}

			}
, 			{
				"patchline" : 				{
					"destination" : [ "obj-6", 0 ],
					"hidden" : 1,
					"source" : [ "obj-12", 0 ]
				}

			}
, 			{
				"patchline" : 				{
					"destination" : [ "obj-10", 0 ],
					"source" : [ "obj-13", 0 ]
				}

			}
, 			{
				"patchline" : 				{
					"destination" : [ "obj-29", 0 ],
					"source" : [ "obj-15", 0 ]
				}

			}
, 			{
				"patchline" : 				{
					"destination" : [ "obj-17", 0 ],
					"source" : [ "obj-16", 0 ]
				}

			}
, 			{
				"patchline" : 				{
					"destination" : [ "obj-2", 0 ],
					"source" : [ "obj-17", 0 ]
				}

			}
, 			{
				"patchline" : 				{
					"destination" : [ "obj-61", 0 ],
					"midpoints" : [ 110.333323160807296, 571.43212890625, 196.166656494140625, 571.43212890625, 196.166656494140625, 431.613755596680221, 235.666656494140625, 431.613755596680221 ],
					"source" : [ "obj-17", 2 ]
				}

			}
, 			{
				"patchline" : 				{
					"destination" : [ "obj-9", 0 ],
					"source" : [ "obj-17", 1 ]
				}

			}
, 			{
				"patchline" : 				{
					"destination" : [ "obj-17", 0 ],
					"source" : [ "obj-3", 0 ]
				}

			}
, 			{
				"patchline" : 				{
					"destination" : [ "obj-1", 0 ],
					"hidden" : 1,
					"order" : 0,
					"source" : [ "obj-33", 0 ]
				}

			}
, 			{
				"patchline" : 				{
					"destination" : [ "obj-50", 0 ],
					"hidden" : 1,
					"order" : 1,
					"source" : [ "obj-33", 0 ]
				}

			}
, 			{
				"patchline" : 				{
					"destination" : [ "obj-97", 0 ],
					"source" : [ "obj-35", 0 ]
				}

			}
, 			{
				"patchline" : 				{
					"destination" : [ "obj-35", 0 ],
					"hidden" : 1,
					"source" : [ "obj-4", 0 ]
				}

			}
, 			{
				"patchline" : 				{
					"destination" : [ "obj-51", 0 ],
					"hidden" : 1,
					"source" : [ "obj-43", 0 ]
				}

			}
, 			{
				"patchline" : 				{
					"destination" : [ "obj-43", 0 ],
					"hidden" : 1,
					"source" : [ "obj-50", 0 ]
				}

			}
, 			{
				"patchline" : 				{
					"destination" : [ "obj-11", 0 ],
					"hidden" : 1,
					"source" : [ "obj-51", 0 ]
				}

			}
, 			{
				"patchline" : 				{
					"destination" : [ "obj-3", 0 ],
					"source" : [ "obj-57", 0 ]
				}

			}
, 			{
				"patchline" : 				{
					"destination" : [ "obj-64", 0 ],
					"source" : [ "obj-61", 1 ]
				}

			}
, 			{
				"patchline" : 				{
					"destination" : [ "obj-7", 0 ],
					"source" : [ "obj-61", 0 ]
				}

			}
, 			{
				"patchline" : 				{
					"destination" : [ "obj-89", 0 ],
					"source" : [ "obj-64", 0 ]
				}

			}
, 			{
				"patchline" : 				{
					"destination" : [ "obj-89", 0 ],
					"source" : [ "obj-7", 1 ]
				}

			}
, 			{
				"patchline" : 				{
					"destination" : [ "obj-89", 0 ],
					"hidden" : 1,
					"source" : [ "obj-8", 0 ]
				}

			}
, 			{
				"patchline" : 				{
					"destination" : [ "obj-15", 0 ],
					"source" : [ "obj-89", 1 ]
				}

			}
 ],
		"parameters" : 		{
			"obj-10::obj-23::obj-4" : [ "tintColor", "tintColor", 0 ],
			"obj-10::obj-17::obj-4" : [ "size", "size", 0 ],
			"obj-10::obj-21::obj-4" : [ "tint", "tint", 0 ],
			"obj-10::obj-19::obj-4" : [ "gamma", "gamma", 0 ],
			"obj-10::obj-25::obj-4" : [ "alphaMode", "alphaMode", 0 ],
			"parameterbanks" : 			{

			}
,
			"parameter_overrides" : 			{
				"obj-10::obj-23::obj-4" : 				{
					"parameter_longname" : "tintColor",
					"parameter_shortname" : "tintColor"
				}
,
				"obj-10::obj-17::obj-4" : 				{
					"parameter_longname" : "size",
					"parameter_shortname" : "size"
				}
,
				"obj-10::obj-21::obj-4" : 				{
					"parameter_longname" : "tint",
					"parameter_shortname" : "tint"
				}
,
				"obj-10::obj-19::obj-4" : 				{
					"parameter_longname" : "gamma",
					"parameter_shortname" : "gamma"
				}
,
				"obj-10::obj-25::obj-4" : 				{
					"parameter_longname" : "alphaMode",
					"parameter_shortname" : "alphaMode"
				}

			}

		}
,
		"dependency_cache" : [ 			{
				"name" : "icon.png",
				"bootpath" : "~/Documents/Max 8/Packages/ISF",
				"patcherrelativepath" : "..",
				"type" : "PNG",
				"implicit" : 1
			}
, 			{
				"name" : "reltoabspath.js",
				"bootpath" : "~/Documents/Max 8/Packages/ISF/javascript",
				"patcherrelativepath" : "../javascript",
				"type" : "TEXT",
				"implicit" : 1
			}
, 			{
				"name" : "ISF_UI_stack.maxpat",
				"bootpath" : "~/Documents/Max 8/Packages/ISF/patchers",
				"patcherrelativepath" : ".",
				"type" : "JSON",
				"implicit" : 1
			}
, 			{
				"name" : "jit_gl_isf_ui_controller.js",
				"bootpath" : "~/Documents/Max 8/Packages/ISF/javascript",
				"patcherrelativepath" : "../javascript",
				"type" : "TEXT",
				"implicit" : 1
			}
, 			{
				"name" : "jit_gl_isf_controller.js",
				"bootpath" : "~/Documents/Max 8/Packages/ISF/javascript",
				"patcherrelativepath" : "../javascript",
				"type" : "TEXT",
				"implicit" : 1
			}
, 			{
				"name" : "chickens.mp4",
				"bootpath" : "C74:/media/jitter",
				"type" : "mpg4",
				"implicit" : 1
			}
, 			{
				"name" : "dust.mp4",
				"bootpath" : "C74:/media/jitter",
				"type" : "mpg4",
				"implicit" : 1
			}
, 			{
				"name" : "sunflower.mp4",
				"bootpath" : "C74:/media/jitter",
				"type" : "mpg4",
				"implicit" : 1
			}
, 			{
				"name" : "jit.gl.isf.mxo",
				"type" : "iLaX"
			}
 ],
		"autosave" : 0
	}

}
